<svg version="1.1" xmlns="http://www.w3.org/2000/svg" xmlns:xlink="http://www.w3.org/1999/xlink" width="994" height="694"><g fill="none" fill-rule="nonzero" stroke="none" stroke-width="1" stroke-linecap="butt" stroke-linejoin="miter" stroke-miterlimit="10" stroke-dasharray="" stroke-dashoffset="0" font-family="none" font-weight="none" font-size="none" text-anchor="none" style="mix-blend-mode: normal"><g><path d="M392,204c0,-16.56854 13.43146,-30 30,-30c16.56854,0 30,13.43146 30,30c0,16.56854 -13.43146,30 -30,30c-16.56854,0 -30,-13.43146 -30,-30z" fill="#ffffff" stroke="#000000"/><text x="422" y="216" fill="#000000" stroke="none" font-family="sans-serif" font-weight="normal" font-size="40" text-anchor="middle">7</text></g><g><path d="M525,211c0,-16.56854 13.43146,-30 30,-30c16.56854,0 30,13.43146 30,30c0,16.56854 -13.43146,30 -30,30c-16.56854,0 -30,-13.43146 -30,-30z" fill="#ffffff" stroke="#000000"/><text x="555" y="223" fill="#000000" stroke="none" font-family="sans-serif" font-weight="normal" font-size="40" text-anchor="middle">8</text></g><g><g><path d="M384,315c0,-16.56854 13.43146,-30 30,-30c16.56854,0 30,13.43146 30,30c0,16.56854 -13.43146,30 -30,30c-16.56854,0 -30,-13.43146 -30,-30z" fill="#ffffff" stroke="#000000"/><text x="414" y="330" fill="#000000" stroke="none" font-family="sans-serif" font-weight="normal" font-size="40" text-anchor="middle">1</text></g><g><path d="M384,395c0,-16.56854 13.43146,-30 30,-30c16.56854,0 30,13.43146 30,30c0,16.56854 -13.43146,30 -30,30c-16.56854,0 -30,-13.43146 -30,-30z" fill="#ffffff" stroke="#000000"/><text x="414" y="410" fill="#000000" stroke="none" font-family="sans-serif" font-weight="normal" font-size="40" text-anchor="middle">2</text></g><g><path d="M384,475c0,-16.56854 13.43146,-30 30,-30c16.56854,0 30,13.43146 30,30c0,16.56854 -13.43146,30 -30,30c-16.56854,0 -30,-13.43146 -30,-30z" fill="#ffffff" stroke="#000000"/><text x="414" y="490" fill="#000000" stroke="none" font-family="sans-serif" font-weight="normal" font-size="40" text-anchor="middle">3</text></g><g><path d="M464,315c0,-16.56854 13.43146,-30 30,-30c16.56854,0 30,13.43146 30,30c0,16.56854 -13.43146,30 -30,30c-16.56854,0 -30,-13.43146 -30,-30z" fill="#ffffff" stroke="#000000"/><text x="494" y="330" fill="#000000" stroke="none" font-family="sans-serif" font-weight="normal" font-size="40" text-anchor="middle">9</text></g><g><path d="M464,395c0,-16.56854 13.43146,-30 30,-30c16.56854,0 30,13.43146 30,30c0,16.56854 -13.43146,30 -30,30c-16.56854,0 -30,-13.43146 -30,-30z" fill="#ffffff" stroke="#000000"/><text x="494" y="410" fill="#000000" stroke="none" font-family="sans-serif" font-weight="normal" font-size="40" text-anchor="middle">10</text></g><g><path d="M464,475c0,-16.56854 13.43146,-30 30,-30c16.56854,0 30,13.43146 30,30c0,16.56854 -13.43146,30 -30,30c-16.56854,0 -30,-13.43146 -30,-30z" fill="#ffffff" stroke="#000000"/><text x="494" y="490" fill="#000000" stroke="none" font-family="sans-serif" font-weight="normal" font-size="40" text-anchor="middle">11</text></g></g><path d="M67,134v0v0v0z" fill="none" stroke="none"/><g><g><path d="M300,315c0,-16.56854 13.43146,-30 30,-30c16.56854,0 30,13.43146 30,30c0,16.56854 -13.43146,30 -30,30c-16.56854,0 -30,-13.43146 -30,-30z" fill="#ffffff" stroke="#000000"/><text x="330" y="330" fill="#000000" stroke="none" font-family="sans-serif" font-weight="normal" font-size="40" text-anchor="middle">4</text></g><g><path d="M300,395c0,-16.56854 13.43146,-30 30,-30c16.56854,0 30,13.43146 30,30c0,16.56854 -13.43146,30 -30,30c-16.56854,0 -30,-13.43146 -30,-30z" fill="#ffffff" stroke="#000000"/><text x="330" y="410" fill="#000000" stroke="none" font-family="sans-serif" font-weight="normal" font-size="40" text-anchor="middle">5</text></g><g><path d="M300,475c0,-16.56854 13.43146,-30 30,-30c16.56854,0 30,13.43146 30,30c0,16.56854 -13.43146,30 -30,30c-16.56854,0 -30,-13.43146 -30,-30z" fill="#ffffff" stroke="#000000"/><text x="330" y="490" fill="#000000" stroke="none" font-family="sans-serif" font-weight="normal" font-size="40" text-anchor="middle">6</text></g></g><path d="M32,367v0v0v0z" fill="none" stroke="none"/></g></svg>